# xmcd
#
# Track frame offsets: 
#        150
#        14605
#        33355
#        43265
#        58352
#        72750
#        88403
#        108344
#
# Disc length: 1637 seconds
#
# Revision: 0
# Processed by: cddbd v1.5.2PL0 Copyright (c) Steve Scherf et al.
# Submitted via: ExactAudioCopy v1.1
#
DISCID=72066308
DTITLE=Mr. P Chill - Funky Uncle Chill
DYEAR=2018
DGENRE=Hip-Hop
TTITLE0=The Rhyme
TTITLE1=Summertime ft. J.Smo and Julie Rush
TTITLE2=Don't Give up the Fight
TTITLE3=4 AM
TTITLE4=More Time
TTITLE5=I Don't Care
TTITLE6=Funky Uncle Chill (instrumental)
TTITLE7=Reach You
EXTD=
EXTT0=
EXTT1=
EXTT2=
EXTT3=
EXTT4=
EXTT5=
EXTT6=
EXTT7=
PLAYORDER=
